# xmcd CD database file
#
# Track frame offsets:
#	150
#	33819
#	67868
#	100351
#	120317
#	147915
#	229970
#	251398
#
# Disc length: 3682 seconds
#
# Revision: 0
# Processed by: cddbd v1.5.2PL0 Copyright (c) Steve Scherf et al.
# Submitted via: CDex 1.51
#
DISCID=600e6008
DTITLE=Billy Hector - Stonehenge 2002
DYEAR=2002
DGENRE=Blues
TTITLE0=Handjive
TTITLE1=Old school ting
TTITLE2=Vagabond
TTITLE3=I aint cryin
TTITLE4=Don't think twice
TTITLE5=Butt Naked
TTITLE6=Creeper
TTITLE7=Rumble shuffle
EXTD=YEAR: 2002
EXTT0=
EXTT1=
EXTT2=
EXTT3=
EXTT4=
EXTT5=
EXTT6=
EXTT7=
PLAYORDER=
